# xmcd
#
# Track frame offsets: 
#        150
#        5324
#        17961
#        34133
#        45905
#        58038
#        71166
#        84806
#        98118
#        111273
#        123421
#        135549
#        147598
#        161785
#        175822
#        188827
#        200136
#        211409
#        223563
#        236186
#        249191
#        262133
#        275010
#        287516
#        299558
#
# Disc length: 4156 seconds
#
# Revision: 0
# Processed by: cddbd v1.5.2PL0 Copyright (c) Steve Scherf et al.
# Submitted via: ExactAudioCopyFreeDBPlugin 1.0
#
DISCID=83103a19
DTITLE=Wynonie Harris - Don't You Want To Rock: The King and Deluxe Acet
DTITLE=ate Series [CD2]
DYEAR=2015
DGENRE=R&B
TTITLE0=Good Rockin' Tonight (take 1)
TTITLE1=Good Rockin' Tonight (take 2)
TTITLE2=Love Is Like Rain (take 3)
TTITLE3=Wynonie's Unissued Blues (take 2)
TTITLE4=Baby, Shame On You (take 1)
TTITLE5=I Believe I'll Fall In Love (take 1)
TTITLE6=Don't You Want to Rock (take 1)
TTITLE7=Love Is Crazy (Crazy Love) (take 2)
TTITLE8=Good Morning Mr Blues (take 1)
TTITLE9=From Bad To Good Blues (take 1)
TTITLE10=Grandma Plays The Numbers (alt)
TTITLE11=She Just Can't Sell No More (take 2)
TTITLE12=Love Is Crazy (Crazy Love) (take 1)
TTITLE13=I Want My Fanny Brown (alt)
TTITLE14=I Feel That Old Age Coming On (take 1)
TTITLE15=Drinkin' Wine Spo Dee O Dee (take 3)
TTITLE16=All She Wants To Do Is Rock (take 3)
TTITLE17=Sittin' On It All The Time (take 1)
TTITLE18=I Like My Baby's Pudding (take 2)
TTITLE19=Triflin' Woman (take 1)
TTITLE20=Oh Babe! (take 1)
TTITLE21=Teardrops From My Eyes (take 1)
TTITLE22=Don't You Want to Rock (take 2)
TTITLE23=Love Is Crazy (Crazy Love) (take 3)
TTITLE24=Good Rockin' Tonight (unedited master)
EXTD=
EXTT0=
EXTT1=
EXTT2=
EXTT3=
EXTT4=
EXTT5=
EXTT6=
EXTT7=
EXTT8=
EXTT9=
EXTT10=
EXTT11=
EXTT12=
EXTT13=
EXTT14=
EXTT15=
EXTT16=
EXTT17=
EXTT18=
EXTT19=
EXTT20=
EXTT21=
EXTT22=
EXTT23=
EXTT24=
PLAYORDER=
